<svg xmlns="http://www.w3.org/2000/svg" xmlns:xlink="http://www.w3.org/1999/xlink" viewBox="0,0,256,256" width="100px" height="100px" fill-rule="nonzero"><g fill="none" fill-rule="nonzero" stroke="none" stroke-width="1" stroke-linecap="butt" stroke-linejoin="miter" stroke-miterlimit="10" stroke-dasharray="" stroke-dashoffset="0" font-family="none" font-weight="none" font-size="none" text-anchor="none" style="mix-blend-mode: normal"><g transform="scale(2.56,2.56)"><path d="M29.609,50.027l42.076,0.053l-20.777,-37.834z" fill="#ffbb33"></path><path d="M8.846,87.059l42.062,-0.322l-20.763,-37.46" fill="#ffbb33"></path><path d="M50.172,87.727l41.835,0.255l-20.764,-37.46" fill="#ffbb33"></path><path d="M92,88h-83c-0.354,0 -0.684,-0.188 -0.862,-0.494c-0.18,-0.307 -0.184,-0.685 -0.01,-0.994l42,-75c0.178,-0.318 0.516,-0.541 0.877,-0.512c0.364,0.002 0.698,0.201 0.873,0.521l41,75c0.169,0.31 0.162,0.686 -0.018,0.989c-0.18,0.303 -0.506,0.49 -0.86,0.49zM10.706,86h79.607l-39.324,-71.935z" fill="#1f212b"></path><path d="M51,86.5c-0.177,0 -0.341,-0.094 -0.431,-0.247l-7.065,-12.018c-0.141,-0.237 -0.061,-0.544 0.178,-0.684c0.234,-0.141 0.543,-0.062 0.684,0.178l6.622,11.263l4.575,-8.235c0.135,-0.243 0.44,-0.325 0.681,-0.194c0.241,0.135 0.328,0.438 0.194,0.681l-5,9c-0.088,0.156 -0.252,0.255 -0.432,0.257c-0.002,-0.001 -0.004,-0.001 -0.006,-0.001z" fill="#1f212b"></path><path d="M40.596,68.562c-0.172,0 -0.339,-0.089 -0.432,-0.248l-10.21,-17.54c-0.091,-0.155 -0.091,-0.346 -0.002,-0.501c0.089,-0.155 0.254,-0.251 0.433,-0.251l9.211,-0.02h0.001c0.275,0 0.499,0.224 0.5,0.499c0.001,0.276 -0.223,0.5 -0.499,0.501l-8.344,0.018l9.773,16.79c0.14,0.239 0.059,0.545 -0.18,0.684c-0.078,0.046 -0.165,0.068 -0.251,0.068z" fill="#1f212b"></path><path d="M68.383,55.16c-0.084,0 -0.169,-0.021 -0.247,-0.065c-0.24,-0.136 -0.324,-0.441 -0.188,-0.682l1.936,-3.411h-23.384c-0.276,0 -0.5,-0.224 -0.5,-0.5c0,-0.276 0.224,-0.5 0.5,-0.5h24.242c0.178,0 0.343,0.095 0.432,0.248c0.09,0.154 0.091,0.344 0.003,0.499l-2.359,4.158c-0.092,0.162 -0.261,0.253 -0.435,0.253z" fill="#1f212b"></path><path d="M58,73.5c-0.084,0 -0.168,-0.021 -0.246,-0.064c-0.24,-0.137 -0.325,-0.441 -0.189,-0.682l8.009,-14.162c0.137,-0.242 0.441,-0.326 0.682,-0.189c0.241,0.137 0.325,0.441 0.189,0.682l-8.009,14.162c-0.092,0.162 -0.262,0.253 -0.436,0.253z" fill="#1f212b"></path><path d="M22.092,84.026h-6.85c-0.177,0 -0.34,-0.093 -0.43,-0.245c-0.091,-0.151 -0.094,-0.34 -0.009,-0.494l9.449,-17.322c0.131,-0.243 0.436,-0.333 0.678,-0.199c0.242,0.132 0.332,0.436 0.199,0.678l-9.045,16.583h6.007c0.276,0 0.5,0.224 0.5,0.5c0,0.276 -0.223,0.499 -0.499,0.499z" fill="#1f212b"></path><path d="M26.892,62.67c-0.081,0 -0.163,-0.02 -0.239,-0.062c-0.242,-0.132 -0.332,-0.436 -0.199,-0.678l1.194,-2.189c0.131,-0.244 0.436,-0.333 0.678,-0.199c0.242,0.132 0.332,0.436 0.199,0.678l-1.194,2.189c-0.091,0.167 -0.263,0.261 -0.439,0.261z" fill="#1f212b"></path><path d="M66.494,84c-0.276,0 -0.5,-0.224 -0.5,-0.5c0,-0.275 0.224,-0.5 0.5,-0.5l19.136,-0.013l-3.18,-5.341c-0.142,-0.237 -0.063,-0.544 0.174,-0.686c0.233,-0.142 0.543,-0.064 0.686,0.174l3.629,6.096c0.092,0.154 0.094,0.347 0.005,0.503c-0.089,0.156 -0.255,0.253 -0.435,0.253l-20.015,0.014z" fill="#1f212b"></path><path d="M61.518,84.014c-0.001,0 -0.002,0 -0.003,0l-2.021,-0.014c-0.276,-0.002 -0.499,-0.228 -0.497,-0.503c0.002,-0.275 0.226,-0.497 0.5,-0.497c0.001,0 0.002,0 0.003,0l2.021,0.014c0.276,0.002 0.499,0.228 0.497,0.503c-0.002,0.275 -0.226,0.497 -0.5,0.497z" fill="#1f212b"></path><path d="M59.966,35.489c-0.179,0 -0.353,-0.097 -0.442,-0.267l-8.528,-16.161l-2.269,4.204c-0.132,0.244 -0.438,0.331 -0.678,0.203c-0.243,-0.132 -0.334,-0.435 -0.203,-0.678l2.714,-5.028c0.087,-0.161 0.256,-0.262 0.44,-0.262c0.001,0 0.002,0 0.002,0c0.185,0.001 0.354,0.104 0.44,0.267l8.966,16.989c0.129,0.244 0.035,0.547 -0.209,0.676c-0.074,0.039 -0.154,0.057 -0.233,0.057z" fill="#1f212b"></path><path d="M63.297,42.031c-0.178,0 -0.35,-0.095 -0.44,-0.263l-1.365,-2.528c-0.131,-0.243 -0.04,-0.546 0.203,-0.678c0.239,-0.128 0.546,-0.041 0.678,0.203l1.365,2.528c0.131,0.243 0.04,0.546 -0.203,0.678c-0.076,0.041 -0.157,0.06 -0.238,0.06z" fill="#1f212b"></path></g></g></svg>